# xmcd
#
# Track frame offsets:
#	150
#	19725
#	32362
#	45975
#	64347
#	79910
#	91687
#	103197
#	122417
#	137615
#	149887
#	164700
#
# Disc length: 2390
#
# Revision: 2
# Processed by: cddbd v1.5.1PL0 Copyright (c) Steve Scherf et al.
# Submitted via: EasyCDDAExtractor 6.0.0.1
# Normalized: r1:DSETVAR1
#
DISCID=9f09540c
DTITLE=Various Artist - 90's Country Hits Vol 1 - Country Boys
DYEAR=2001
DGENRE=Country
TTITLE0=Alan Jackson - Gone Country
TTITLE1=Clint Black - Summer's Comin'
TTITLE2=John Anderson - Money In The Bank
TTITLE3=Keith Whitley - It Ain't Nothin'
TTITLE4=Collin Raye - I Think About You
TTITLE5=Robert Ellis Orrall - Boom! It Was Over
TTITLE6=Larry Stewart - Alright Already
TTITLE7=Lee Roy Parnell - I'm Holding My Own
TTITLE8=Randy Travis - Before You Kill Us All
TTITLE9=Ty England - Should've Asked Her Faster
TTITLE10=Aaron Tippen - That's As Close As I'll Get To Loving You
TTITLE11=Don Williams - Back In My Younger Days
EXTD=
EXTT0=
EXTT1=
EXTT2=
EXTT3=
EXTT4=
EXTT5=
EXTT6=
EXTT7=
EXTT8=
EXTT9=
EXTT10=
EXTT11=
PLAYORDER=
